<svg xmlns="http://www.w3.org/2000/svg" width="88" height="18" viewBox="0 0 88 18">
    <g fill="#FFF" fill-rule="evenodd">
        <path d="M84.857 10.808c-.122 2.412-2.242 4.291-4.721 3.982-1.896-.236-3.42-1.796-3.633-3.713-.283-2.558 1.692-4.724 4.166-4.724 2.244 0 4.075 1.779 4.188 4.016v.439zm-4.773-7.609c-3.636.286-6.51 3.264-6.736 6.914C73.08 14.427 76.457 18 80.66 18c1.52 0 3.575-.764 4.499-2.379v2.18h2.835l.006-7.07c0-4.604-3.704-7.861-7.916-7.532zM60.762 10.588c0-1.5.945-3.222 3.042-3.951 2.382-.828 4.463.27 5.339 1.818l-8.381 2.133zm4.052-7.408c-3.87.11-7.195 3.139-7.195 7.477 0 4 3.22 7.343 7.366 7.343 2.89 0 5.715-1.752 6.832-4.594l-2.836-.851c-.513 1.166-1.752 2.185-3.183 2.453-1.993.374-3.826-.851-4.546-2.216l11.034-3.023c-.326-2.85-2.812-6.72-7.472-6.59zM40.857 6.257v-3.08c-2.773 0-3.755 1.38-4.17 2.145V3.669h-3.163V18h3.247c-.003-4.432-.01-4.358-.01-7.032 0-3.31 1.893-4.6 4.096-4.711M12.558 12.362L3.196 1.06H0v16.918h3.304V6.662L12.783 18h2.93l.001-16.941h-3.156zM52.381 10.808c-.122 2.412-2.242 4.291-4.721 3.982-1.896-.236-3.42-1.796-3.633-3.713-.283-2.558 1.691-4.724 4.166-4.724 2.244 0 4.075 1.779 4.188 4.016v.439zM55.522 0h-3.021v5.327c-.718-.912-2.96-1.64-4.887-1.489-3.606.283-6.515 3.121-6.742 6.612-.269 4.124 3.111 7.55 7.318 7.55 1.57 0 3.757-.727 4.503-2.01l-.003 1.811h2.832v-6.76l.002-.132c0-.045 0-.089-.002-.133V0zM25.143 14.824c-2.315 0-4.19-1.897-4.19-4.236 0-2.339 1.875-4.235 4.19-4.235 2.314 0 4.19 1.896 4.19 4.235 0 2.34-1.876 4.236-4.19 4.236m0-11.648c-4.05 0-7.333 3.319-7.333 7.412S21.093 18 25.143 18c4.05 0 7.333-3.319 7.333-7.412s-3.283-7.412-7.333-7.412"/>
    </g>
</svg>
